<?xml version="1.0" encoding="utf-8"?>
<!-- Generator: Adobe Illustrator 24.1.3, SVG Export Plug-In . SVG Version: 6.00 Build 0)  -->
<svg version="1.1" id="Netflix_x5F_Logo_x5F_RGB" xmlns="http://www.w3.org/2000/svg" xmlns:xlink="http://www.w3.org/1999/xlink"
	 x="0px" y="0px" viewBox="0 0 1427.04 412.02" style="enable-background:new 0 0 1427.04 412.02;" xml:space="preserve">
<style type="text/css">
	.st0{fill:#0099FF;}
</style>
<g>
	<g>
		<path class="st0" d="M133.26,393.14c-5.6-15.23-5.69-31.02-5.73-47.11c0.03-20.4,0.06-40.8,0.09-61.2
			c0.04-12.48-0.92-27.83-9.96-37.51c-8.06-8.63-20.69-9.62-31.78-8.69c-7.35,0.6-14.71,1.22-22.06,1.84
			c-0.05,54.01-0.09,108.03-0.14,162.04c-21.25,3.04-42.47,6.21-63.68,9.52c0-135.8,0-271.6,0-407.4c32.2-0.06,64.4-0.11,96.61-0.16
			c25.11-0.05,53.25,3.87,72.26,21.87c17.82,16.88,22.49,42.25,22.43,65.83c-0.02,10-0.04,20-0.06,30.01
			c-0.04,32.86-11.35,63.89-42,79.48c0,0.44,0,0.66,0,1.11c34.14,11.36,42.36,45.72,42.28,78.12c-0.04,19.64-0.08,39.27-0.11,58.91
			c0.02,15.44,0.13,31.33,6.88,45.58C176.59,387.81,154.92,390.4,133.26,393.14z M63.97,61.37c-0.03,40.75-0.07,81.49-0.1,122.24
			c8.33-0.54,16.65-1.07,24.98-1.59c10.11-0.61,20.82-3.15,28.12-10.64c8.35-8.57,10.3-21.38,10.29-32.85
			c0.02-12.8,0.04-25.6,0.06-38.4c0.08-21.72-8.21-40.21-32.52-39.41C84.52,60.93,74.24,61.14,63.97,61.37z"/>
		<path class="st0" d="M228.52,94.96c0.04-25.42,6.53-52.01,25.17-70.34c19.01-18.68,46.36-24.66,72.22-24.66
			c25.63,0,52.93,5.76,72.11,23.88c18.31,17.3,24.96,42.5,24.9,67.04c-0.13,62.68-0.25,125.35-0.38,188.03
			c-0.04,25.15-7.17,50.47-25.2,68.72c-18.92,19.15-46.09,27.23-72.28,29.47c-24.92,2.13-52.6-0.66-72.09-17.93
			c-19.07-16.89-24.93-43.2-24.87-67.72C228.25,225.95,228.39,160.46,228.52,94.96z M292.09,290.33
			c-0.3,21.34,11.1,35.62,33.1,34.08c21.92-1.53,33.27-17.09,33.27-38.42c0.15-65.89,0.29-131.78,0.44-197.67
			c0.11-21.12-11.16-36.07-33.1-35.7c-22.08,0.37-33.44,15.63-33.26,37.04C292.39,156.56,292.24,223.45,292.09,290.33z"/>
		<path class="st0" d="M655.87,85.15c0,4.2,0,8.4-0.01,12.6c0.01,30.94-11.55,58.49-41.41,70.9c0,0.4,0,0.61,0,1.01
			c33.92,11.08,47.8,40.73,47.76,74.72c0,9.58-0.01,19.15-0.01,28.73c0,23.29-6.75,46.75-24.7,62.55
			c-19.7,17.35-47.37,22.41-72.81,23.22c-33.66,1.1-67.3,2.56-100.92,4.37c0.22-119.73,0.44-239.46,0.66-359.19
			c32.2-0.02,64.41-0.04,96.61-0.05c24.77-0.02,52.88,3.17,72.29,20.17C650.76,39.45,655.89,62.87,655.87,85.15z M528.37,54.92
			c-0.05,31.38-0.09,62.76-0.14,94.14c8.35-0.14,16.7-0.27,25.05-0.39c24.17-0.16,38.53-13.34,38.49-37.92
			c0.01-6.58,0.01-13.15,0.02-19.73c0.07-21.44-9.77-36.65-32.57-36.27C548.94,54.8,538.66,54.85,528.37,54.92z M528.16,199.94
			c-0.05,36.47-0.11,72.94-0.16,109.4c12.25-0.42,24.5-0.8,36.75-1.15c22.33-0.41,33.33-13.8,33.29-35.71
			c0.01-10.28,0.02-20.56,0.03-30.84c0.03-11.44-1.05-25.17-9.75-33.65c-8.18-7.98-20.79-8.87-31.6-8.65
			C547.2,199.53,537.68,199.73,528.16,199.94z"/>
		<path class="st0" d="M764.81,160.73c27.59,0.15,55.17,0.4,82.75,0.75c0.02,16.88,0.04,33.76,0.06,50.63
			c-27.59-0.47-55.19-0.8-82.79-0.99c0.02,48.55,0.04,97.1,0.06,145.65c-21.4-0.23-42.81-0.32-64.21-0.27
			C700.69,239,700.7,121.5,700.72,3.99c56.46,0,112.91,0.01,169.37,0.03c0.02,16.91,0.04,33.82,0.06,50.73
			c-35.13-0.18-70.26-0.3-105.39-0.36C764.78,89.84,764.79,125.28,764.81,160.73z"/>
		<path class="st0" d="M900.93,4.03c21.34,0.01,42.68,0.02,64.02,0.03c0.19,102.66,0.38,205.32,0.57,307.99
			c35.17,1.67,70.33,3.67,105.47,6c0.04,17.44,0.08,34.88,0.12,52.32c-56.49-4.36-113.04-7.71-169.65-10.05
			C901.28,241.56,901.11,122.8,900.93,4.03z"/>
		<path class="st0" d="M1098.22,4.17c21.34,0.02,42.68,0.04,64.02,0.07c0.27,124.74,0.55,249.48,0.82,374.21
			c-21.33-2.08-42.66-4.02-64.01-5.82C1098.77,249.81,1098.5,126.99,1098.22,4.17z"/>
		<path class="st0" d="M1422.38,4.61c-21.83,64.37-44.08,128.6-66.75,192.69c24.43,71.36,48.24,142.94,71.4,214.72
			c-22.36-3.49-44.75-6.83-67.16-10.01c-16.96-53.95-34.24-107.81-51.82-161.56c-0.46-0.04-0.7-0.06-1.16-0.09
			c-17.12,49.42-34.46,98.76-52.02,148.02c-19.94-2.35-39.88-4.57-59.85-6.68c24.08-63.24,47.8-126.61,71.12-190.14
			c-22-62.57-44.44-125-67.26-187.28c22.12,0.03,44.23,0.05,66.35,0.08c16.2,48.01,32.18,96.1,47.92,144.27
			c0.46,0.02,0.7,0.03,1.16,0.06c16.44-47.99,32.67-96.05,48.69-144.18C1382.81,4.54,1402.59,4.58,1422.38,4.61z"/>
	</g>
</g>
<g>
</g>
<g>
</g>
<g>
</g>
<g>
</g>
<g>
</g>
<g>
</g>
</svg>
